<svg xmlns="http://www.w3.org/2000/svg" xmlns:xlink="http://www.w3.org/1999/xlink" viewBox="0 0 64.34 64.66"><defs><style>.cls-1{fill:url(#Dégradé_sans_nom_43);}.cls-2{fill:#323639;}</style><linearGradient id="Dégradé_sans_nom_43" x1="6.84" y1="4.5" x2="66.61" y2="64.27" gradientUnits="userSpaceOnUse"><stop offset="0" stop-color="#763ce5"/><stop offset="1" stop-color="#65ff43"/></linearGradient></defs><g id="Calque_2" data-name="Calque 2"><g id="Calque_1-2" data-name="Calque 1"><path class="cls-1" d="M64.31.8A.77.77,0,0,0,63.57,0c-2.17,0-5.74,0-9.79.13C45,.42,33.94,1,30.43,1.23l-4.75.38C17.75,2.25,4,3.41.7,3.69a.78.78,0,0,0-.7.82c.12,3.5.64,18.19.86,24,.23,6,.88,28.13,1,32.2a.78.78,0,0,0,.66.76c1.45.19,5.16.55,9.54,1,6.85.63,15.35,1.33,19.38,1.57s8.52.38,12.8.48c6.62.15,12.55.18,14.47.18a.77.77,0,0,0,.75-.66c.53-3.35,2.94-18.75,3.95-31.65C64.46,19,64.36,4.27,64.31.8Z"/><path class="cls-2" d="M59.69,5.32a.66.66,0,0,0-.64-.67c-1.86-.05-4.92,0-8.38.11l-3.35.11c.18.77.39,1.64.58,2.49l3.38,2.13-2.84.22.21,1,.78.33,2.33,1-2,.54-.67.18c.28,1.36.64,3.07,1,4.71l3.37,1.87-2.94.27A27.08,27.08,0,0,1,51.05,23a6.72,6.72,0,0,1-.6,2.25l-2.53,4.35a.52.52,0,0,1-.56.25s-4.82-1-6.55-1.47a3.11,3.11,0,0,1-.64-.35c-.26-.21-2.42-2.69-4.66-5.37L32.85,25l1-4.31L33,19.59l-2.67,1.68,1.34-3.38-.16-.21c-.69-.91-3.78-5.44-6.38-9.26L23.57,9.64l.7-2.49-.61-.9c-6.83.56-16,1.33-18.44,1.54a.67.67,0,0,0-.6.7c.11,3,.55,15.57.74,20.55.2,5.14.75,24.09.85,27.57a.67.67,0,0,0,.57.65c1.24.16,4.42.48,8.16.82l1.35.12c-.08-.62-.15-1.24-.17-1.46s-.17-1.35-.35-2.67l-3-2.2,2.69-.21c-.11-.83-.23-1.69-.34-2.53L12.31,46l2.42.4c-.1-.79-.19-1.48-.25-2a44.85,44.85,0,0,1-.37-5,9,9,0,0,1,1.35-5,8.24,8.24,0,0,1,1-1.38l-.86-2.59,2.1,1.36a6.46,6.46,0,0,1,2.9-1.47c2.59-.45,5.5,1.22,7.13,3.24l1.89-1.65-.4,3.6c.62.83,1.34,1.83,2.12,2.92l1.54-1.2-.37,2.87c2,2.93,4.23,6.26,5.69,8.92l1.74-1.81-.49,4.11c1.4,2.61,3.2,6.14,4.38,8.53,5.13.11,9.58.13,11.09.13a.65.65,0,0,0,.64-.57c.46-2.86,2.52-16,3.39-27.09C59.82,20.88,59.73,8.28,59.69,5.32Z"/><path class="cls-2" d="M45.44,17.51c.66-.33.36-1.81.05-2.52-.5-1.13-1.24-2.05-2-1.66S43,15,43.62,16.21C44.14,17.24,44.87,17.78,45.44,17.51Z"/><path class="cls-2" d="M39.56,20c.42-.25.71-1.3-.15-2.94-.68-1.28-1.51-1.73-2-1.43s-.56,1.27.13,2.79C38,19.41,38.93,20.35,39.56,20Z"/><path class="cls-2" d="M19.53,42.59c-.68.33-.56,1.95-.35,2.9s1.09,2.68,1.95,2.43.77-2,.25-3.63S20,42.39,19.53,42.59Z"/><path class="cls-2" d="M26.45,40.34c-.29.12-1,1.35-.18,3.52.65,1.7,1.47,2,1.85,1.81.65-.22.85-1.63.21-3.62C27.9,40.7,27,40.12,26.45,40.34Z"/></g></g></svg>